<svg width="1080" height="563" viewBox="0 0 1080 563" fill="none" xmlns="http://www.w3.org/2000/svg">
<g clip-path="url(#clip0_1421_3)">
<path d="M5.47021 373.32V367.78L165.57 78.02H77.9002C67.7502 78.02 59.5202 80.33 53.2102 84.94C46.9102 89.56 41.2902 96.33 36.3702 105.24L15.1402 142.61H10.5302L13.7602 68.79H239.39V74.33L79.2902 364.09H179.88C190.03 364.09 198.1 361.71 204.1 356.94C210.1 352.17 215.55 345.33 220.48 336.41L240.32 299.49H244.93L241.7 373.31H5.47021V373.32Z" fill="white"/>
<path d="M310.91 373.32V368.71L321.52 364.55C326.75 362.4 330.36 359.56 332.37 356.02C334.36 352.49 335.37 347.64 335.37 341.48V100.63C335.37 94.48 334.52 89.64 332.83 86.09C331.14 82.56 327.37 79.71 321.52 77.56L310.91 73.41V68.79H531.92L534.69 139.85H530.08L510.24 96.48C507.47 90.94 504.54 86.49 501.47 83.1C498.39 79.72 493.78 78.02 487.63 78.02H404.58V211.36H453.95C460.1 211.36 464.79 209.75 468.02 206.52C471.25 203.29 474.09 198.9 476.56 193.37L485.79 174.91H490.4V257.96H485.79L476.56 238.58C473.79 233.04 470.86 228.66 467.79 225.43C464.71 222.2 460.1 220.58 453.95 220.58H404.58V364.08H497.79C503.94 364.08 508.71 362.47 512.09 359.24C515.47 356.01 518.24 351.47 520.39 345.62L539.31 302.25H543.92L541.15 373.31H310.91V373.32Z" fill="white"/>
<path d="M619.13 373.32V368.71L634.35 364.09C639.89 362.55 643.88 359.56 646.35 355.09C648.81 350.64 650.04 345.33 650.04 339.18V117.24C646.65 109.86 643.96 104.32 641.97 100.63C639.96 96.94 637.74 93.79 635.28 91.17C632.81 88.56 629.44 85.25 625.13 81.25L617.29 73.41V68.79H698.95L852.14 277.81V103.86C852.14 97.71 851.14 92.18 849.14 87.25C847.14 82.34 843.07 79.1 836.91 77.56L821.69 73.41V68.79H887.67V73.41L875.21 77.56C869.67 79.4 866.28 82.64 865.06 87.25C863.83 91.86 863.22 97.25 863.22 103.4V374.71H837.38L661.13 132.48V339.19C661.13 345.34 662.05 350.57 663.9 354.87C665.75 359.18 669.59 362.26 675.44 364.1L689.28 368.72V373.33H619.15L619.13 373.32Z" fill="white"/>
<path d="M955.95 373.32V368.71L965.17 365.02C971.32 362.87 975.4 359.94 977.4 356.25C979.39 352.56 980.4 347.64 980.4 341.49V100.63C980.4 94.4798 979.48 89.5598 977.63 85.8698C975.78 82.1798 971.63 79.2598 965.17 77.1098L955.95 73.4198V68.7998H1074.53V73.4198L1065.3 77.1098C1059.14 79.2598 1055.07 82.1798 1053.07 85.8698C1051.06 89.5598 1050.07 94.4898 1050.07 100.63V341.48C1050.07 347.64 1051.06 352.49 1053.07 356.02C1055.06 359.56 1059.14 362.56 1065.3 365.02L1074.53 368.71V373.32H955.95Z" fill="white"/>
<path d="M1080 0.169922H0.620117V12.3699H1080V0.169922Z" fill="#173960"/>
<path d="M236 0.379883H0V12.1499H236V0.379883Z" fill="#41B4C0"/>
<path d="M447.07 0H236V12.14H447.07V0Z" fill="#4393A2"/>
<path d="M658.49 0H447.42V12.14H658.49V0Z" fill="#00799F"/>
<path d="M868.75 0H657.68V12.14H868.75V0Z" fill="#787680"/>
<path d="M1079.01 0H867.94V12.14H1079.01V0Z" fill="#89645B"/>
<path d="M1080 438.3H0.620117V450.5H1080V438.3Z" fill="#173960"/>
<path d="M236 438.51H0V450.28H236V438.51Z" fill="#41B4C0"/>
<path d="M447.07 438.14H236V450.28H447.07V438.14Z" fill="#4393A2"/>
<path d="M658.49 438.14H447.42V450.28H658.49V438.14Z" fill="#00799F"/>
<path d="M868.75 438.14H657.68V450.28H868.75V438.14Z" fill="#787680"/>
<path d="M1079.01 438.14H867.94V450.28H1079.01V438.14Z" fill="#89645B"/>
<path d="M0 551.53V513.43C0 512.2 0.71 511.49 1.94 511.49H26.29C27.46 511.49 28.16 512.13 28.16 513.3V514.27C28.16 515.43 27.45 516.08 26.29 516.08H5.23V530.03H21.57C22.73 530.03 23.51 530.67 23.51 531.84V532.75C23.51 533.98 22.73 534.56 21.57 534.56H5.23V548.9H26.29C27.46 548.9 28.23 549.54 28.23 550.71V551.68C28.23 552.84 27.46 553.49 26.29 553.49H1.94C0.71 553.49 0 552.72 0 551.55V551.53Z" fill="white"/>
<path d="M71.9398 513.42V552.43C71.9398 553.27 71.2898 553.79 70.5798 553.79H70.3198C69.6098 553.79 68.9698 553.2 68.1898 552.3L42.8698 521.82V551.53C42.8698 552.7 42.2298 553.47 41.0598 553.47H39.5698C38.4098 553.47 37.7598 552.7 37.7598 551.53V512.52C37.7598 511.68 38.4098 511.16 39.1198 511.16H39.3798C40.0898 511.16 40.7998 511.74 41.5198 512.65L66.8398 543.13V513.42C66.8398 512.19 67.4798 511.48 68.6498 511.48H70.1398C71.3698 511.48 71.9498 512.19 71.9498 513.42H71.9398Z" fill="white"/>
<path d="M115.2 551.53C115.84 552.76 115.26 553.47 114.29 553.47H111.97C110.74 553.47 110.48 553.08 109.83 551.98L100.85 535.9H90.19V551.53C90.19 552.7 89.55 553.47 88.38 553.47H86.77C85.61 553.47 84.96 552.7 84.96 551.53V513.43C84.96 512.2 85.67 511.49 86.9 511.49H100.98C110.73 511.49 115.9 516.08 115.9 523.76C115.9 529.89 112.48 533.96 106.22 535.38L115.2 551.53ZM90.2 531.57H102.09C107.45 531.57 110.55 528.27 110.55 523.82C110.55 519.37 107.45 516.07 102.09 516.07H90.2V531.57Z" fill="white"/>
<path d="M126.16 551.53V513.43C126.16 512.2 126.81 511.49 127.97 511.49H129.58C130.74 511.49 131.39 512.2 131.39 513.43V551.53C131.39 552.7 130.74 553.47 129.58 553.47H127.97C126.81 553.47 126.16 552.7 126.16 551.53Z" fill="white"/>
<path d="M181.63 560.25C182.6 561.28 182.15 562.12 180.99 562.12H178.21C177.04 562.12 176.4 561.67 175.43 560.63L169.1 553.65C167.36 554.04 165.55 554.23 163.68 554.23C151.08 554.23 141.46 544.93 141.46 532.47C141.46 520.01 151.08 510.71 163.68 510.71C176.28 510.71 185.96 520.01 185.96 532.47C185.96 541.19 181.25 548.3 174.14 551.85L181.63 560.24V560.25ZM163.68 549.46C173.3 549.46 180.67 542.36 180.67 532.47C180.67 522.58 173.3 515.49 163.68 515.49C154.06 515.49 146.76 522.59 146.76 532.47C146.76 542.35 154.12 549.46 163.68 549.46Z" fill="white"/>
<path d="M195.38 536.8V513.42C195.38 512.19 196.02 511.48 197.19 511.48H198.8C199.96 511.48 200.61 512.19 200.61 513.42V536.73C200.61 544.35 205.65 549.45 213.14 549.45C220.63 549.45 225.67 544.35 225.67 536.73V513.42C225.67 512.19 226.31 511.48 227.48 511.48H229.03C230.19 511.48 230.78 512.19 230.78 513.42V536.8C230.78 547.26 223.74 554.23 213.15 554.23C202.56 554.23 195.39 547.26 195.39 536.8H195.38Z" fill="white"/>
<path d="M243.22 551.53V513.43C243.22 512.2 243.93 511.49 245.16 511.49H269.51C270.67 511.49 271.38 512.13 271.38 513.3V514.27C271.38 515.43 270.67 516.08 269.51 516.08H248.46V530.03H264.8C265.96 530.03 266.74 530.67 266.74 531.84V532.75C266.74 533.98 265.96 534.56 264.8 534.56H248.46V548.9H269.51C270.67 548.9 271.45 549.54 271.45 550.71V551.68C271.45 552.84 270.67 553.49 269.51 553.49H245.16C243.93 553.49 243.22 552.72 243.22 551.55V551.53Z" fill="white"/>
<path d="M328.33 551.53C328.97 552.76 328.39 553.47 327.42 553.47H325.1C323.87 553.47 323.61 553.08 322.96 551.98L313.98 535.9H303.32V551.53C303.32 552.7 302.68 553.47 301.51 553.47H299.9C298.74 553.47 298.09 552.7 298.09 551.53V513.43C298.09 512.2 298.8 511.49 300.03 511.49H314.11C323.86 511.49 329.03 516.08 329.03 523.76C329.03 529.89 325.61 533.96 319.35 535.38L328.33 551.53ZM303.33 531.57H315.22C320.58 531.57 323.68 528.27 323.68 523.82C323.68 519.37 320.58 516.07 315.22 516.07H303.33V531.57Z" fill="white"/>
<path d="M336.78 550.24C336.78 548.04 338.59 546.229 340.78 546.229C342.97 546.229 344.79 548.04 344.79 550.24C344.79 552.44 342.98 554.24 340.78 554.24C338.58 554.24 336.78 552.43 336.78 550.24Z" fill="white"/>
<path d="M399.99 550.82V551.66C399.99 552.82 399.28 553.47 398.12 553.47H368.54C367.44 553.47 366.93 552.95 366.93 552.11V551.59C366.93 550.95 367.25 550.43 367.71 549.72L391.41 515.94H370.09C368.93 515.94 368.22 515.3 368.22 514.13V513.29C368.22 512.13 368.93 511.48 370.09 511.48H396.89C397.92 511.48 398.64 512 398.64 512.83V513.35C398.64 514 398.32 514.52 397.8 515.22L374.16 549H398.12C399.28 549 399.99 549.65 399.99 550.81V550.82Z" fill="white"/>
<path d="M408.45 551.53V513.43C408.45 512.2 409.16 511.49 410.39 511.49H434.74C435.91 511.49 436.61 512.13 436.61 513.3V514.27C436.61 515.43 435.9 516.08 434.74 516.08H413.68V530.03H430.02C431.18 530.03 431.96 530.67 431.96 531.84V532.75C431.96 533.98 431.18 534.56 430.02 534.56H413.68V548.9H434.74C435.91 548.9 436.68 549.54 436.68 550.71V551.68C436.68 552.84 435.91 553.49 434.74 553.49H410.39C409.16 553.49 408.45 552.72 408.45 551.55V551.53Z" fill="white"/>
<path d="M480.39 513.42V552.43C480.39 553.27 479.74 553.79 479.03 553.79H478.77C478.06 553.79 477.42 553.2 476.64 552.3L451.32 521.82V551.53C451.32 552.7 450.68 553.47 449.51 553.47H448.02C446.86 553.47 446.21 552.7 446.21 551.53V512.52C446.21 511.68 446.86 511.16 447.57 511.16H447.83C448.54 511.16 449.25 511.74 449.97 512.65L475.29 543.13V513.42C475.29 512.19 475.93 511.48 477.1 511.48H478.59C479.82 511.48 480.4 512.19 480.4 513.42H480.39Z" fill="white"/>
<path d="M493.41 551.53V513.43C493.41 512.2 494.06 511.49 495.22 511.49H496.83C497.99 511.49 498.64 512.2 498.64 513.43V551.53C498.64 552.7 497.99 553.47 496.83 553.47H495.22C494.06 553.47 493.41 552.7 493.41 551.53Z" fill="white"/>
<path d="M559.61 513.23L544.17 537.51V551.52C544.17 552.69 543.52 553.46 542.36 553.46H540.75C539.59 553.46 538.94 552.69 538.94 551.52V537.63L523.24 513.22C522.66 512.38 523.24 511.48 524.34 511.48H526.54C527.7 511.48 528.35 512.06 529.05 513.29L541.58 533.19L553.98 513.29C554.69 512.06 555.33 511.48 556.5 511.48H558.5C559.53 511.48 560.18 512.39 559.6 513.22L559.61 513.23Z" fill="white"/>
<path d="M581.29 532.47C581.29 520.01 590.91 510.71 603.12 510.71C609.77 510.71 615.58 513.49 619.53 517.94C620.3 518.78 620.17 519.69 619.27 520.4L618.17 521.31C617.26 522.02 616.43 521.83 615.59 520.92C612.43 517.56 608.23 515.5 603.25 515.5C593.89 515.5 586.59 522.6 586.59 532.48C586.59 542.36 593.89 549.47 603.25 549.47C608.23 549.47 612.49 547.4 615.59 544.05C616.43 543.14 617.27 542.95 618.17 543.66L619.27 544.57C620.18 545.28 620.3 546.18 619.53 546.96C615.59 551.48 609.78 554.26 603.12 554.26C590.91 554.26 581.29 544.96 581.29 532.5V532.47Z" fill="white"/>
<path d="M629.33 551.53V513.43C629.33 512.2 629.98 511.49 631.14 511.49H632.75C633.91 511.49 634.56 512.2 634.56 513.43V551.53C634.56 552.7 633.91 553.47 632.75 553.47H631.14C629.98 553.47 629.33 552.7 629.33 551.53Z" fill="white"/>
<path d="M682.41 553.46H679.89C678.73 553.46 678.47 552.82 677.89 551.65L674.53 544.16H652.24L648.82 551.65C648.3 552.81 648.04 553.46 646.88 553.46H644.49C643.33 553.46 642.81 552.82 643.39 551.65L661.73 512.38C661.99 511.73 662.44 511.15 663.28 511.15H663.73C664.57 511.15 665.02 511.73 665.34 512.38L683.49 551.65C684.07 552.81 683.55 553.46 682.39 553.46H682.41ZM672.6 539.77L663.43 519.36L654.19 539.77H672.6Z" fill="white"/>
<path d="M689.76 550.24C689.76 548.04 691.57 546.229 693.77 546.229C695.97 546.229 697.78 548.04 697.78 550.24C697.78 552.44 695.97 554.24 693.77 554.24C691.57 554.24 689.76 552.43 689.76 550.24Z" fill="white"/>
<path d="M720.88 547.2C720.17 546.23 719.72 545.2 720.94 544.23L721.39 543.78C722.42 542.94 723.39 542.49 724.36 543.78C727.2 547.66 732.3 549.53 736.18 549.53C742.12 549.53 745.8 546.56 745.8 542.62C745.8 536.68 739.47 535.9 732.56 533.32C728.1 531.64 721.84 529.12 721.84 522.08C721.84 515.5 727.46 510.71 735.79 510.71C741.54 510.71 745.93 512.9 748.9 516.07C749.68 516.91 750.26 517.88 749.03 518.97L748.44 519.49C747.6 520.27 746.63 520.72 745.54 519.62C743.08 517.1 739.98 515.35 735.85 515.35C730.81 515.35 727.19 517.87 727.19 521.61C727.19 525.62 731.07 527.1 735.39 528.72C742.43 531.3 751.15 533.11 751.15 542.41C751.15 549.64 745.01 554.22 736.42 554.22C730.42 554.22 724.22 551.96 720.86 547.18L720.88 547.2Z" fill="white"/>
<path d="M758.46 550.24C758.46 548.04 760.27 546.229 762.46 546.229C764.65 546.229 766.47 548.04 766.47 550.24C766.47 552.44 764.66 554.24 762.46 554.24C760.26 554.24 758.46 552.43 758.46 550.24Z" fill="white"/>
<path d="M811.8 553.46H809.28C808.12 553.46 807.86 552.82 807.28 551.65L803.92 544.16H781.64L778.22 551.65C777.7 552.81 777.44 553.46 776.28 553.46H773.89C772.73 553.46 772.21 552.82 772.79 551.65L791.13 512.38C791.39 511.73 791.84 511.15 792.68 511.15H793.13C793.97 511.15 794.42 511.73 794.74 512.38L812.89 551.65C813.47 552.81 812.95 553.46 811.79 553.46H811.8ZM801.99 539.77L792.82 519.36L783.58 539.77H801.99Z" fill="white"/>
<path d="M819.15 550.24C819.15 548.04 820.96 546.229 823.15 546.229C825.34 546.229 827.16 548.04 827.16 550.24C827.16 552.44 825.35 554.24 823.15 554.24C820.95 554.24 819.15 552.43 819.15 550.24Z" fill="white"/>
<path d="M832.45 532.47C832.45 520.01 842.07 510.71 854.28 510.71C860.93 510.71 866.74 513.49 870.69 517.94C871.46 518.78 871.33 519.69 870.43 520.4L869.33 521.31C868.42 522.02 867.59 521.83 866.75 520.92C863.59 517.56 859.39 515.5 854.41 515.5C845.05 515.5 837.75 522.6 837.75 532.48C837.75 542.36 845.05 549.47 854.41 549.47C859.39 549.47 863.65 547.4 866.75 544.05C867.59 543.14 868.43 542.95 869.33 543.66L870.43 544.57C871.34 545.28 871.46 546.18 870.69 546.96C866.75 551.48 860.94 554.26 854.28 554.26C842.07 554.26 832.45 544.96 832.45 532.5V532.47Z" fill="white"/>
<path d="M877.97 550.24C877.97 548.04 879.78 546.229 881.98 546.229C884.18 546.229 885.99 548.04 885.99 550.24C885.99 552.44 884.18 554.24 881.98 554.24C879.78 554.24 877.97 552.43 877.97 550.24Z" fill="white"/>
<path d="M896.5 551.53V513.43C896.5 512.2 897.15 511.49 898.31 511.49H899.92C901.08 511.49 901.73 512.2 901.73 513.43V551.53C901.73 552.7 901.08 553.47 899.92 553.47H898.31C897.15 553.47 896.5 552.7 896.5 551.53Z" fill="white"/>
<path d="M912.25 550.24C912.25 548.04 914.06 546.229 916.26 546.229C918.46 546.229 920.27 548.04 920.27 550.24C920.27 552.44 918.46 554.24 916.26 554.24C914.06 554.24 912.25 552.43 912.25 550.24Z" fill="white"/>
<path d="M965.6 553.46H963.08C961.92 553.46 961.66 552.82 961.08 551.65L957.72 544.16H935.43L932.01 551.65C931.49 552.81 931.23 553.46 930.07 553.46H927.68C926.52 553.46 926 552.82 926.58 551.65L944.92 512.38C945.18 511.73 945.63 511.15 946.47 511.15H946.92C947.76 511.15 948.21 511.73 948.53 512.38L966.68 551.65C967.26 552.81 966.74 553.46 965.58 553.46H965.6ZM955.78 539.77L946.61 519.36L937.37 539.77H955.78Z" fill="white"/>
<path d="M972.94 550.24C972.94 548.04 974.75 546.229 976.95 546.229C979.15 546.229 980.96 548.04 980.96 550.24C980.96 552.44 979.15 554.24 976.95 554.24C974.75 554.24 972.94 552.43 972.94 550.24Z" fill="white"/>
<path d="M991.48 551.53V513.43C991.48 512.2 992.19 511.49 993.42 511.49H1016.67C1017.9 511.49 1018.61 512.13 1018.61 513.3V514.27C1018.61 515.43 1017.9 516.08 1016.67 516.08H996.72V530.09H1011.7C1012.87 530.09 1013.57 530.73 1013.57 531.9V532.87C1013.57 534.03 1012.86 534.61 1011.7 534.61H996.72V551.53C996.72 552.7 996.07 553.47 994.91 553.47H993.3C992.14 553.47 991.49 552.7 991.49 551.53H991.48Z" fill="white"/>
<path d="M1018.66 550.24C1018.66 548.04 1020.47 546.229 1022.67 546.229C1024.87 546.229 1026.68 548.04 1026.68 550.24C1026.68 552.44 1024.87 554.24 1022.67 554.24C1020.47 554.24 1018.66 552.43 1018.66 550.24Z" fill="white"/>
<path d="M1049.92 549.78C1052.76 549.78 1056.38 549 1059.87 546.1C1061.03 545.13 1061.87 545.26 1062.65 546.1L1063.29 546.68C1064.26 547.71 1063.81 548.62 1063.16 549.26C1059.28 553 1053.8 554.23 1049.92 554.23C1041.07 554.23 1032.81 548.1 1032.81 537.44C1032.81 527.69 1039.79 520.39 1049.09 520.39C1053.68 520.39 1057.55 522 1060.32 524.72C1063.49 527.82 1065.17 532.09 1065.17 536.67C1065.17 537.9 1064.26 538.74 1062.98 538.74H1038.05C1038.63 545.85 1044.06 549.79 1049.93 549.79L1049.92 549.78ZM1038.1 534.48H1059.93C1059.54 531.83 1058.51 529.57 1056.96 528.02C1055.09 525.95 1052.37 524.86 1049.08 524.86C1043.2 524.86 1038.94 528.6 1038.1 534.48Z" fill="white"/>
<path d="M1074.77 551.53V513.43C1074.77 512.2 1075.42 511.49 1076.58 511.49H1078.19C1079.35 511.49 1080 512.2 1080 513.43V551.53C1080 552.7 1079.36 553.47 1078.19 553.47H1076.58C1075.42 553.47 1074.77 552.7 1074.77 551.53Z" fill="white"/>
</g>
<defs>
<clipPath id="clip0_1421_3">
<rect width="1080" height="562.12" fill="white"/>
</clipPath>
</defs>
</svg>
